<svg width="323" height="323" viewBox="0 0 323 323" fill="none" xmlns="http://www.w3.org/2000/svg">
<path d="M0.118996 52.8026V298.479C-0.0481148 299.823 -0.967243 308.683 6.87151 315.894C14.0852 322.53 23.4774 322.95 25.2383 323H293.966C295.822 323 306.654 322.898 315.031 315.437C322.845 308.492 323.009 300.107 323 298.369V159.385L300.449 122.931V18.1978C300.554 17.3549 301.343 9.92605 294.507 4.44831C288.046 -0.730068 279.962 -0.0158095 278.842 0.0944805H128.132C124.689 -0.110157 121.253 0.566489 118.267 2.03692C115.282 3.50735 112.885 5.70393 111.387 8.3426L96.6072 32.764C95.074 35.6154 92.4315 37.9325 89.1232 39.3263C85.8149 40.7201 82.0422 41.1058 78.4385 40.4186H18.4858C17.446 40.3241 10.6594 39.8068 5.25302 44.0949C2.39556 46.3995 0.579152 49.4803 0.118996 52.8026Z" fill="#7100BB"/>
</svg>
